<svg xmlns="http://www.w3.org/2000/svg" width="868" height="382" viewBox="0 0 868 382">
<rect width="100%" height="100%" rx="10" fill="#1b1e24"/>
<rect width="100%" height="30" rx="10" fill="#2b2f37"/><rect y="20" width="100%" height="10" fill="#2b2f37"/>
<circle cx="18" cy="15.0" r="6" fill="#ff5f57"/>
<circle cx="38" cy="15.0" r="6" fill="#febc2e"/>
<circle cx="58" cy="15.0" r="6" fill="#28c840"/>
<text x="434" y="20.0" fill="#8b929e" font-size="13" text-anchor="middle" font-family="sans-serif">disksift</text>
<g font-family="'DejaVu Sans Mono',Consolas,Menlo,'MS Gothic',monospace" font-size="14" fill="#d4d7dd">
<rect x="14.0" y="44" width="135.0" height="18" fill="#2b2f37" shape-rendering="crispEdges"/>
<text x="14.0" y="57" textLength="134.4" lengthAdjust="spacingAndGlyphs" xml:space="preserve" font-weight="bold">DiskSift 0.1.0  </text>
<rect x="148.4" y="44" width="17.4" height="18" fill="#2b2f37" shape-rendering="crispEdges"/>
<text x="148.4" y="57" textLength="16.8" lengthAdjust="spacingAndGlyphs" xml:space="preserve" font-weight="bold">根</text>
<rect x="165.2" y="44" width="42.6" height="18" fill="#2b2f37" shape-rendering="crispEdges"/>
<text x="165.2" y="57" textLength="42.0" lengthAdjust="spacingAndGlyphs" xml:space="preserve" font-weight="bold">: /  </text>
<rect x="207.2" y="44" width="51.0" height="18" fill="#2b2f37" shape-rendering="crispEdges"/>
<text x="207.2" y="57" textLength="50.4" lengthAdjust="spacingAndGlyphs" xml:space="preserve" font-weight="bold">ホーム</text>
<rect x="257.6" y="44" width="588.6" height="18" fill="#2b2f37" shape-rendering="crispEdges"/>
<text x="257.6" y="57" textLength="588.0" lengthAdjust="spacingAndGlyphs" xml:space="preserve" font-weight="bold">: /root                                                               </text>
<rect x="845.6" y="44" width="9.0" height="18" fill="#2b2f37" shape-rendering="crispEdges"/>
<rect x="14.0" y="62" width="34.2" height="18" fill="#2b2f37" shape-rendering="crispEdges"/>
<rect x="47.6" y="62" width="51.0" height="18" fill="#2b2f37" shape-rendering="crispEdges"/>
<text x="47.6" y="75" textLength="50.4" lengthAdjust="spacingAndGlyphs" xml:space="preserve" text-decoration="underline">大きさ</text>
<rect x="98.0" y="62" width="51.0" height="18" fill="#2b2f37" shape-rendering="crispEdges"/>
<rect x="148.4" y="62" width="34.2" height="18" fill="#2b2f37" shape-rendering="crispEdges"/>
<text x="148.4" y="75" textLength="33.6" lengthAdjust="spacingAndGlyphs" xml:space="preserve" text-decoration="underline">件数</text>
<rect x="182.0" y="62" width="17.4" height="18" fill="#2b2f37" shape-rendering="crispEdges"/>
<rect x="198.8" y="62" width="34.2" height="18" fill="#2b2f37" shape-rendering="crispEdges"/>
<text x="198.8" y="75" textLength="33.6" lengthAdjust="spacingAndGlyphs" xml:space="preserve" text-decoration="underline">項目</text>
<rect x="232.4" y="62" width="235.8" height="18" fill="#2b2f37" shape-rendering="crispEdges"/>
<rect x="467.6" y="62" width="34.2" height="18" fill="#2b2f37" shape-rendering="crispEdges"/>
<text x="467.6" y="75" textLength="33.6" lengthAdjust="spacingAndGlyphs" xml:space="preserve" text-decoration="underline">掃除</text>
<rect x="501.2" y="62" width="345.0" height="18" fill="#2b2f37" shape-rendering="crispEdges"/>
<rect x="845.6" y="62" width="9.0" height="18" fill="#2b2f37" shape-rendering="crispEdges"/>
<rect x="14.0" y="80" width="244.2" height="18" fill="#d4d7dd" shape-rendering="crispEdges"/>
<text x="14.0" y="93" textLength="243.6" lengthAdjust="spacingAndGlyphs" xml:space="preserve" fill="#2b2f37">  62.0 MiB        29  pacman </text>
<rect x="257.6" y="80" width="185.4" height="18" fill="#d4d7dd" shape-rendering="crispEdges"/>
<text x="257.6" y="93" textLength="184.8" lengthAdjust="spacingAndGlyphs" xml:space="preserve" fill="#2b2f37">のパッケージキャッシュ</text>
<rect x="442.4" y="80" width="25.8" height="18" fill="#d4d7dd" shape-rendering="crispEdges"/>
<rect x="467.6" y="80" width="51.0" height="18" fill="#d4d7dd" shape-rendering="crispEdges"/>
<text x="467.6" y="93" textLength="50.4" lengthAdjust="spacingAndGlyphs" xml:space="preserve" fill="#2b2f37">掃除可</text>
<rect x="518.0" y="80" width="67.8" height="18" fill="#d4d7dd" shape-rendering="crispEdges"/>
<text x="518.0" y="93" textLength="67.2" lengthAdjust="spacingAndGlyphs" xml:space="preserve" fill="#2b2f37">(root)  </text>
<rect x="585.2" y="80" width="51.0" height="18" fill="#d4d7dd" shape-rendering="crispEdges"/>
<text x="585.2" y="93" textLength="50.4" lengthAdjust="spacingAndGlyphs" xml:space="preserve" fill="#2b2f37">空く量</text>
<rect x="635.6" y="80" width="210.6" height="18" fill="#d4d7dd" shape-rendering="crispEdges"/>
<text x="635.6" y="93" textLength="210.0" lengthAdjust="spacingAndGlyphs" xml:space="preserve" fill="#2b2f37"> 0 B                     </text>
<rect x="845.6" y="80" width="9.0" height="18" fill="#2b2f37" shape-rendering="crispEdges"/>
<rect x="14.0" y="98" width="454.2" height="18" fill="#2b2f37" shape-rendering="crispEdges"/>
<text x="14.0" y="111" textLength="453.6" lengthAdjust="spacingAndGlyphs" xml:space="preserve">   8.0 MiB         1  systemd journal                 </text>
<rect x="467.6" y="98" width="51.0" height="18" fill="#2b2f37" shape-rendering="crispEdges"/>
<text x="467.6" y="111" textLength="50.4" lengthAdjust="spacingAndGlyphs" xml:space="preserve">掃除可</text>
<rect x="518.0" y="98" width="67.8" height="18" fill="#2b2f37" shape-rendering="crispEdges"/>
<text x="518.0" y="111" textLength="67.2" lengthAdjust="spacingAndGlyphs" xml:space="preserve">(root)  </text>
<rect x="585.2" y="98" width="51.0" height="18" fill="#2b2f37" shape-rendering="crispEdges"/>
<text x="585.2" y="111" textLength="50.4" lengthAdjust="spacingAndGlyphs" xml:space="preserve">空く量</text>
<rect x="635.6" y="98" width="219.0" height="18" fill="#2b2f37" shape-rendering="crispEdges"/>
<text x="635.6" y="111" textLength="218.4" lengthAdjust="spacingAndGlyphs" xml:space="preserve"> 0 B                      </text>
<rect x="14.0" y="116" width="185.4" height="18" fill="#2b2f37" shape-rendering="crispEdges"/>
<text x="14.0" y="129" textLength="184.8" lengthAdjust="spacingAndGlyphs" xml:space="preserve">     285 B         3  </text>
<rect x="198.8" y="116" width="51.0" height="18" fill="#2b2f37" shape-rendering="crispEdges"/>
<text x="198.8" y="129" textLength="50.4" lengthAdjust="spacingAndGlyphs" xml:space="preserve">その他</text>
<rect x="249.2" y="116" width="9.0" height="18" fill="#2b2f37" shape-rendering="crispEdges"/>
<text x="249.2" y="129" textLength="8.4" lengthAdjust="spacingAndGlyphs" xml:space="preserve">(</text>
<rect x="257.6" y="116" width="151.8" height="18" fill="#2b2f37" shape-rendering="crispEdges"/>
<text x="257.6" y="129" textLength="151.2" lengthAdjust="spacingAndGlyphs" xml:space="preserve">ホームの大きいもの</text>
<rect x="408.8" y="116" width="59.4" height="18" fill="#2b2f37" shape-rendering="crispEdges"/>
<text x="408.8" y="129" textLength="58.8" lengthAdjust="spacingAndGlyphs" xml:space="preserve">)      </text>
<rect x="467.6" y="116" width="67.8" height="18" fill="#2b2f37" shape-rendering="crispEdges"/>
<text x="467.6" y="129" textLength="67.2" lengthAdjust="spacingAndGlyphs" xml:space="preserve">案内のみ</text>
<rect x="534.8" y="116" width="319.8" height="18" fill="#2b2f37" shape-rendering="crispEdges"/>
<rect x="14.0" y="134" width="185.4" height="18" fill="#2b2f37" shape-rendering="crispEdges"/>
<text x="14.0" y="147" textLength="184.8" lengthAdjust="spacingAndGlyphs" xml:space="preserve">       0 B         0  </text>
<rect x="198.8" y="134" width="118.2" height="18" fill="#2b2f37" shape-rendering="crispEdges"/>
<text x="198.8" y="147" textLength="117.6" lengthAdjust="spacingAndGlyphs" xml:space="preserve">孤立パッケージ</text>
<rect x="316.4" y="134" width="151.8" height="18" fill="#2b2f37" shape-rendering="crispEdges"/>
<rect x="467.6" y="134" width="67.8" height="18" fill="#2b2f37" shape-rendering="crispEdges"/>
<text x="467.6" y="147" textLength="67.2" lengthAdjust="spacingAndGlyphs" xml:space="preserve">案内のみ</text>
<rect x="534.8" y="134" width="319.8" height="18" fill="#2b2f37" shape-rendering="crispEdges"/>
<rect x="14.0" y="152" width="185.4" height="18" fill="#2b2f37" shape-rendering="crispEdges"/>
<text x="14.0" y="165" textLength="184.8" lengthAdjust="spacingAndGlyphs" xml:space="preserve">       0 B         0  </text>
<rect x="198.8" y="152" width="84.6" height="18" fill="#2b2f37" shape-rendering="crispEdges"/>
<text x="198.8" y="165" textLength="84.0" lengthAdjust="spacingAndGlyphs" xml:space="preserve">コアダンプ</text>
<rect x="282.8" y="152" width="185.4" height="18" fill="#2b2f37" shape-rendering="crispEdges"/>
<rect x="467.6" y="152" width="51.0" height="18" fill="#2b2f37" shape-rendering="crispEdges"/>
<text x="467.6" y="165" textLength="50.4" lengthAdjust="spacingAndGlyphs" xml:space="preserve">掃除可</text>
<rect x="518.0" y="152" width="336.6" height="18" fill="#2b2f37" shape-rendering="crispEdges"/>
<text x="518.0" y="165" textLength="336.0" lengthAdjust="spacingAndGlyphs" xml:space="preserve">(root)                                  </text>
<rect x="14.0" y="170" width="185.4" height="18" fill="#2b2f37" shape-rendering="crispEdges"/>
<text x="14.0" y="183" textLength="184.8" lengthAdjust="spacingAndGlyphs" xml:space="preserve">       0 B         0  </text>
<rect x="198.8" y="170" width="168.6" height="18" fill="#2b2f37" shape-rendering="crispEdges"/>
<text x="198.8" y="183" textLength="168.0" lengthAdjust="spacingAndGlyphs" xml:space="preserve">ローテート済みのログ</text>
<rect x="366.8" y="170" width="101.4" height="18" fill="#2b2f37" shape-rendering="crispEdges"/>
<rect x="467.6" y="170" width="51.0" height="18" fill="#2b2f37" shape-rendering="crispEdges"/>
<text x="467.6" y="183" textLength="50.4" lengthAdjust="spacingAndGlyphs" xml:space="preserve">掃除可</text>
<rect x="518.0" y="170" width="336.6" height="18" fill="#2b2f37" shape-rendering="crispEdges"/>
<text x="518.0" y="183" textLength="336.0" lengthAdjust="spacingAndGlyphs" xml:space="preserve">(root)                                  </text>
<rect x="14.0" y="188" width="185.4" height="18" fill="#2b2f37" shape-rendering="crispEdges"/>
<text x="14.0" y="201" textLength="184.8" lengthAdjust="spacingAndGlyphs" xml:space="preserve" opacity="0.6">         -         -  </text>
<rect x="198.8" y="188" width="168.6" height="18" fill="#2b2f37" shape-rendering="crispEdges"/>
<text x="198.8" y="201" textLength="168.0" lengthAdjust="spacingAndGlyphs" xml:space="preserve" opacity="0.6">ユーザーのキャッシュ</text>
<rect x="366.8" y="188" width="101.4" height="18" fill="#2b2f37" shape-rendering="crispEdges"/>
<rect x="467.6" y="188" width="34.2" height="18" fill="#2b2f37" shape-rendering="crispEdges"/>
<text x="467.6" y="201" textLength="33.6" lengthAdjust="spacingAndGlyphs" xml:space="preserve" opacity="0.6">無し</text>
<rect x="501.2" y="188" width="345.0" height="18" fill="#2b2f37" shape-rendering="crispEdges"/>
<rect x="845.6" y="188" width="9.0" height="18" fill="#2b2f37" shape-rendering="crispEdges"/>
<rect x="14.0" y="206" width="185.4" height="18" fill="#2b2f37" shape-rendering="crispEdges"/>
<text x="14.0" y="219" textLength="184.8" lengthAdjust="spacingAndGlyphs" xml:space="preserve" opacity="0.6">         -         -  </text>
<rect x="198.8" y="206" width="51.0" height="18" fill="#2b2f37" shape-rendering="crispEdges"/>
<text x="198.8" y="219" textLength="50.4" lengthAdjust="spacingAndGlyphs" xml:space="preserve" opacity="0.6">ゴミ箱</text>
<rect x="249.2" y="206" width="219.0" height="18" fill="#2b2f37" shape-rendering="crispEdges"/>
<rect x="467.6" y="206" width="34.2" height="18" fill="#2b2f37" shape-rendering="crispEdges"/>
<text x="467.6" y="219" textLength="33.6" lengthAdjust="spacingAndGlyphs" xml:space="preserve" opacity="0.6">無し</text>
<rect x="501.2" y="206" width="345.0" height="18" fill="#2b2f37" shape-rendering="crispEdges"/>
<rect x="845.6" y="206" width="9.0" height="18" fill="#2b2f37" shape-rendering="crispEdges"/>
<rect x="14.0" y="224" width="454.2" height="18" fill="#2b2f37" shape-rendering="crispEdges"/>
<text x="14.0" y="237" textLength="453.6" lengthAdjust="spacingAndGlyphs" xml:space="preserve" opacity="0.6">         -         -  Docker / Podman                 </text>
<rect x="467.6" y="224" width="34.2" height="18" fill="#2b2f37" shape-rendering="crispEdges"/>
<text x="467.6" y="237" textLength="33.6" lengthAdjust="spacingAndGlyphs" xml:space="preserve" opacity="0.6">無し</text>
<rect x="501.2" y="224" width="345.0" height="18" fill="#2b2f37" shape-rendering="crispEdges"/>
<rect x="845.6" y="224" width="9.0" height="18" fill="#2b2f37" shape-rendering="crispEdges"/>
<rect x="14.0" y="242" width="840.6" height="18" fill="#2b2f37" shape-rendering="crispEdges"/>
<rect x="14.0" y="260" width="840.6" height="18" fill="#2b2f37" shape-rendering="crispEdges"/>
<rect x="14.0" y="278" width="840.6" height="18" fill="#2b2f37" shape-rendering="crispEdges"/>
<rect x="14.0" y="296" width="840.6" height="18" fill="#2b2f37" shape-rendering="crispEdges"/>
<rect x="14.0" y="314" width="840.6" height="18" fill="#2b2f37" shape-rendering="crispEdges"/>
<rect x="14.0" y="332" width="840.6" height="18" fill="#2b2f37" shape-rendering="crispEdges"/>
<rect x="14.0" y="350" width="34.2" height="18" fill="#d4d7dd" shape-rendering="crispEdges"/>
<text x="14.0" y="363" textLength="33.6" lengthAdjust="spacingAndGlyphs" xml:space="preserve" fill="#2b2f37">j/k:</text>
<rect x="47.6" y="350" width="34.2" height="18" fill="#d4d7dd" shape-rendering="crispEdges"/>
<text x="47.6" y="363" textLength="33.6" lengthAdjust="spacingAndGlyphs" xml:space="preserve" fill="#2b2f37">移動</text>
<rect x="81.2" y="350" width="67.8" height="18" fill="#d4d7dd" shape-rendering="crispEdges"/>
<text x="81.2" y="363" textLength="67.2" lengthAdjust="spacingAndGlyphs" xml:space="preserve" fill="#2b2f37">  Enter:</text>
<rect x="148.4" y="350" width="34.2" height="18" fill="#d4d7dd" shape-rendering="crispEdges"/>
<text x="148.4" y="363" textLength="33.6" lengthAdjust="spacingAndGlyphs" xml:space="preserve" fill="#2b2f37">詳細</text>
<rect x="182.0" y="350" width="34.2" height="18" fill="#d4d7dd" shape-rendering="crispEdges"/>
<text x="182.0" y="363" textLength="33.6" lengthAdjust="spacingAndGlyphs" xml:space="preserve" fill="#2b2f37">  c:</text>
<rect x="215.6" y="350" width="34.2" height="18" fill="#d4d7dd" shape-rendering="crispEdges"/>
<text x="215.6" y="363" textLength="33.6" lengthAdjust="spacingAndGlyphs" xml:space="preserve" fill="#2b2f37">掃除</text>
<rect x="249.2" y="350" width="34.2" height="18" fill="#d4d7dd" shape-rendering="crispEdges"/>
<text x="249.2" y="363" textLength="33.6" lengthAdjust="spacingAndGlyphs" xml:space="preserve" fill="#2b2f37">  r:</text>
<rect x="282.8" y="350" width="51.0" height="18" fill="#d4d7dd" shape-rendering="crispEdges"/>
<text x="282.8" y="363" textLength="50.4" lengthAdjust="spacingAndGlyphs" xml:space="preserve" fill="#2b2f37">再計算</text>
<rect x="333.2" y="350" width="34.2" height="18" fill="#d4d7dd" shape-rendering="crispEdges"/>
<text x="333.2" y="363" textLength="33.6" lengthAdjust="spacingAndGlyphs" xml:space="preserve" fill="#2b2f37">  q:</text>
<rect x="366.8" y="350" width="34.2" height="18" fill="#d4d7dd" shape-rendering="crispEdges"/>
<text x="366.8" y="363" textLength="33.6" lengthAdjust="spacingAndGlyphs" xml:space="preserve" fill="#2b2f37">終了</text>
<rect x="400.4" y="350" width="445.8" height="18" fill="#d4d7dd" shape-rendering="crispEdges"/>
<rect x="845.6" y="350" width="9.0" height="18" fill="#2b2f37" shape-rendering="crispEdges"/>
</g></svg>
